<?xml version="1.0" encoding="UTF-8"?>
<svg fill="none" viewBox="0 0 360 171" xmlns="http://www.w3.org/2000/svg">
<path d="m323.09-165.12c1.548-4.974-0.56-8.828-3.409-10.272-2.78-1.595-6.178-1.822-8.4-4.265-3.036-3.352-3.417-10.64-7.364-12.752-5.851-3.32-15.36 7.258-22.372 6.893-2.386-0.144-4.436-1.416-6.814-1.191-2.446 0.378-5.916 3.406-6.124 6.965-0.044 1.258 0.342 2.341 0.65 3.208 1.963 3.79 5.266 6.164 9.094 6.216 8.454 0.273 12.911 9 21.528 10.076 5.432 0.761 18.841 9.434 23.211-4.878z" stroke="#000"/>
<path d="m312.35-202.92c-1.707-2.033-3.688-3.458-6.435-3.578-5.853-0.218-13.015 5.557-18.425 9.004-4.628 2.881-9.462 6.217-14.286 6.82-0.936 0.134-1.803 0.115-2.816 0.032-3.398-0.226-6.401-2.103-10.135-1.2-4.241 0.861-10.382 7.088-11.244 13.643-0.069 0.152-0.069 0.153 8e-3 0.369-0.165 2.3 0.237 4.121 0.923 5.703 2.296 5.762 6.576 9.847 12.369 10.586 0.653 0.106 1.09 0.3 1.605 0.71 3.294 2.006 5.214 7.054 8.646 8.755 7.155 3.533 15.67 3.285 23.461 6.186 4.007 1.591 8.796 2.615 13.884 4.137 2.909 0.923 5.558 6.294 8.742 6.608 6.874 0.669 13.574-6.406 17.827-13.103 1.392-2.305 2.561-4.891 3.507-7.758 2.838-8.602 0.561-16.729-6.08-19.851-4.599-2.218-9.242-3.178-12.286-6.898-1.407-1.536-2.393-3.615-3.241-5.998-1.996-5.265-3.203-10.728-6.024-14.167z" stroke="#000"/>
<path d="m320.63-213.49c-2.023-3.269-4.613-6.058-8.741-6.607-8.694-1.292-19.455 8.184-26.848 13.309-6.329 4.318-13.43 9.572-20.615 11.138-1.365 0.309-2.807 0.401-4.034 0.405-5.202-0.111-9.38-2.873-14.908-1.486-6.035 1.345-14.847 10.77-16.15 20.234-0.068 0.152-0.137 0.304 9e-3 0.369-0.354 3.494 0.21 6.117 1.058 8.501 2.922 7.865 8.548 14.006 16.804 15.104 0.798 0.171 1.459 0.646 2.051 1.273 3.473 3.545 4.909 12.761 9.208 14.481 10.202 4.15 23.182 0.22 33.255 5.044 6.349 2.993 13.524 4.16 21.084 6.411 4.145 1.286 7.7 11.622 12.042 12.084 10.274 0.896 20.23-12.222 26.365-21.92 2.302-3.545 4.013-7.716 5.578-11.953 4.128-12.229 1.759-24.413-8.898-29.495-6.203-2.928-12.373-4.381-16.387-9.443-1.638-2.185-3.069-4.827-4.08-8.013-2.321-6.869-3.569-14.176-6.793-19.436z" stroke="#000"/>
<path d="m328.91-224.06c-2.34-4.504-5.684-8.722-10.833-9.723-11.457-2.15-25.894 10.81-35.348 17.396-8.175 5.692-17.321 13.144-26.875 15.305-1.794 0.484-3.597 0.599-5.399 0.714-6.858 0.068-12.288-3.796-19.679-1.774-7.752 2.046-19.167 14.518-21.27 26.914-0.069 0.152 8e-3 0.368-0.06 0.52-0.69 4.624 0.114 8.266 1.194 11.299 3.623 10.184 10.519 18.165 21.092 19.559 1.013 0.083 1.827 0.991 2.642 1.899 3.799 5.15 4.528 18.251 9.771 20.207 13.103 4.704 30.557-2.54 43.195 3.967 8.692 4.394 18.321 5.553 28.498 8.597 5.38 1.651 9.696 16.887 15.412 17.409 13.603 1.2745 26.885-18.038 34.833-30.585 3.067-4.849 5.543-10.325 7.435-16.06 5.418-15.856 3.232-32.706-11.638-38.922-8.092-3.399-15.437-5.737-20.273-12.077-2.084-2.747-3.747-6.039-4.997-10.244-2.784-8.169-4.074-17.319-7.7-24.401z" stroke="#000"/>
<path d="m337.19-234.64c-2.657-5.74-6.609-11.323-13.14-12.753-14.151-3.16-32.401 13.589-43.77 21.701-9.876 7.129-21.289 16.499-32.989 19.535-2.224 0.659-4.455 0.949-6.764 1.023-8.583 0.399-15.266-4.566-24.452-2.06-9.546 2.529-23.563 18.048-26.243 33.657-0.069 0.152 8e-3 0.368-0.129 0.673-0.88 5.817 0.087 10.261 1.398 13.945 4.18 12.438 12.49 22.322 25.526 24.076 1.305 0.212 2.12 1.121 3.089 2.462 4.192 6.602 4.223 23.958 10.479 25.997 16.149 5.322 38-5.452 53.135 2.89 11.111 6.0125 23.263 7.0101 35.697 10.87 6.616 2.0156 11.692 22.152 18.713 22.886 16.933 1.653 33.395-23.92 43.37-39.403 3.978-6.089 6.927-12.998 9.438-20.102 6.776-19.637 4.491-40.911-14.455-48.567-9.911-4.021-18.5-7.092-24.229-14.557-2.529-3.31-4.424-7.252-5.982-12.323-3.332-10.054-4.664-21.049-8.692-29.951z" stroke="#000"/>
<path d="m345.47-245.21c-3.05-7.192-7.68-13.987-15.232-15.869-17.06-4.083-38.84 16.216-52.193 26.005-11.722 8.503-25.179 20.071-39.318 23.854-2.583 0.682-5.244 1.147-7.914 1.243-10.24 0.579-18.175-5.488-29.369-2.411-11.194 3.078-28.029 21.731-31.217 40.4-0.069 0.152-0.061 0.521-0.13 0.673-1.069 7.012 0.061 12.258 1.534 16.744 4.805 14.54 14.607 26.545 29.961 28.595 1.45 0.276 2.557 1.314 3.465 3.176 4.372 8.142 3.774 29.6 11.042 31.722 19.265 5.7884 45.375-8.2121 62.998 1.5959 13.384 7.5668 27.991 8.5556 43.111 13.057 7.852 2.38 13.689 27.417 22.013 28.363 20.332 1.8795 40.051-29.736 51.694-48.132 4.742-7.3934 8.31-15.672 11.294-24.209 8.066-23.264 5.826-48.9-17.196-57.994-11.729-4.644-21.563-8.449-28.26-17.254-2.83-3.809-5.101-8.465-6.822-14.338-3.589-11.811-5.031-24.498-9.461-35.221z" stroke="#000"/>
<path d="m353.75-255.78c-3.367-8.428-8.537-16.74-17.47-19.051-19.755-5.092-45.279 18.842-60.547 30.157-13.491 10.094-29.146 23.427-45.577 28.02-3.013 0.857-6.25 1.433-9.279 1.553-12.043 0.694-21.299-6.324-34.141-2.698-12.989 3.561-32.495 25.413-36.338 47.079-0.137 0.304-0.06 0.521-0.198 0.825-1.259 8.205 0.033 14.254 1.669 19.541 5.508 16.859 16.579 30.705 34.249 33.049 1.665 0.189 2.926 1.66 3.912 3.739 4.697 9.746 3.538 35.155 11.536 37.6 22.165 6.3421 52.818-11.124 72.937 0.519 15.657 9.1207 32.934 10.013 50.311 15.331 9.087 2.7443 15.616 32.834 25.383 33.688 23.661 2.258 46.775-35.705 60.23-56.949 5.508-8.6979 9.763-18.498 13.297-28.252 9.356-26.892 7.162-56.889-19.867-67.574-13.549-5.267-24.695-9.652-32.215-19.735-3.276-4.371-5.925-9.742-7.808-16.417-3.914-13.415-5.183-28.033-10.084-40.425z" stroke="#000"/>
<path d="m362.03-266.36c-3.684-9.663-9.608-19.404-19.631-22.015-22.595-6.167-51.572 21.534-68.97 34.461-15.337 11.467-33.114 26.783-51.837 32.187-3.442 1.032-7.039 1.631-10.644 1.861-13.699 0.873-24.207-7.246-38.913-2.984-14.782 4.045-36.96 29.095-41.311 53.822 8e-3 0.369-0.129 0.673-0.121 1.042-1.525 9.182 6e-3 16.249 1.873 22.187 6.133 18.961 18.55 34.863 38.684 37.567 1.957 0.319 3.363 1.854 4.357 4.302 5.237 11.262 3.088 40.797 12.244 43.39 25.212 6.9603 60.193-13.884 82.877-0.5584 17.931 10.675 37.732 11.406 57.726 17.517 10.323 3.1087 17.758 38.163 28.537 39.101 27.061 2.4844 53.285-41.586 68.699-65.614 6.419-9.9377 11.293-21.107 15.223-32.511 10.646-30.52 8.42-65.094-22.753-77.066-15.299-6.042-27.759-11.008-36.102-22.368-3.722-4.933-6.601-10.954-8.794-18.496-4.53-15.149-5.84-31.611-11.144-45.824z" stroke="#000"/>
<path d="m370.24-276.78c-3.932-11.051-10.534-22.005-21.87-25.197-25.357-7.024-58.011 24.16-77.392 38.766-17.037 12.905-37.005 30.354-58.02 36.57-4.017 1.142-7.897 1.98-11.863 2.233-15.355 1.054-27.185-8.016-43.616-3.423-16.499 4.746-41.357 32.627-46.431 60.502 8e-3 0.368-0.129 0.673-0.121 1.041-1.715 10.377-0.021 18.246 2.009 24.986 6.688 21.216 20.521 39.021 43.117 42.086 2.172 0.2308 3.587 2.1349 4.804 4.8641 5.561 12.867 2.783 46.505 12.806 49.115 28.182 7.3618 67.637-16.797 92.671-1.7 20.205 12.228 42.606 13.016 64.925 19.791 11.559 3.473 19.755 43.428 31.839 44.578 30.39 2.863 59.94-47.402 77.236-74.432 7.183-11.242 12.676-23.78 17.079-36.618 11.936-34.148 9.757-73.083-25.424-86.646-16.973-6.599-30.822-12.364-40.203-24.913-4.022-5.431-7.279-12.167-9.565-20.663-4.786-16.905-6.207-35.059-11.981-50.94z" stroke="#000"/>
<path d="m378.53-287.35c-4.249-12.286-11.605-24.669-24.03-28.161-28.198-8.099-64.45 26.787-85.747 42.918-18.883 14.278-40.972 33.71-64.279 40.736-4.447 1.317-8.833 2.114-13.228 2.542-17.012 1.233-30.094-8.938-48.388-3.709s-45.823 36.309-51.337 67.092c0.0084 0.369-0.198 0.825-0.1896 1.194-1.9047 11.571-0.1168 20.394 2.1441 27.784 7.3914 23.534 22.638 43.244 47.406 46.539 2.317 0.2954 4.024 2.3286 5.249 5.4266 5.887 14.471 2.403 51.995 13.37 54.841 31.227 7.98 75.01-19.557 102.61-2.7771 22.624 13.847 47.402 14.409 72.339 21.977 12.795 3.8374 21.751 48.693 35.208 49.903 33.72 3.2415 66.451-53.284 85.559-83.162 7.948-12.547 14.06-26.454 19.082-40.66 13.295-37.928 11.092-81.072-28.242-96.29-18.792-7.222-33.884-13.72-44.089-27.547-4.467-5.993-7.956-13.379-10.55-22.742-5.249-18.205-6.712-38.202-12.888-55.905z" stroke="#000"/>
<path d="m386.81-297.93c-4.497-13.673-12.53-27.269-26.268-31.342-30.893-9.109-70.958 29.566-94.316 47.158-20.583 15.716-44.862 37.282-70.539 44.902-4.876 1.493-9.691 2.465-14.524 2.699-18.668 1.412-33.072-9.709-53.159-3.996-20.088 5.713-50.289 39.991-56.457 73.771-0.0604 0.521-0.198 0.825-0.2585 1.346-2.0942 12.765-0.1438 22.39 2.3484 30.43 8.0163 25.637 24.61 47.402 51.84 51.058 2.609 0.4245 4.393 2.6743 5.773 6.2057 6.28 15.923 2.098 57.702 14.078 60.631 34.274 8.5982 82.453-22.469 112.55-3.854 24.897 15.401 52.345 15.866 79.684 24.316 14.031 4.2018 23.747 53.957 38.509 55.38 37.119 3.4679 73.106-59.1 94.028-91.827 8.927-13.939 15.512-29.279 20.938-44.767 14.585-41.556 12.351-89.276-30.982-105.72-20.611-7.845-37.017-14.923-47.975-30.179-4.768-6.491-8.633-14.592-11.536-24.821-5.797-20.091-7.156-41.868-13.734-61.392z" stroke="#000"/>
<path d="m395.09-308.5c-4.814-14.909-13.532-30.086-28.36-34.459-33.656-9.967-77.397 32.192-102.74 51.462-22.43 17.089-48.83 40.637-76.868 49.22-5.236 1.516-10.481 2.663-15.889 3.008-20.471 1.527-35.981-10.631-57.932-4.282-21.736 6.261-54.754 43.674-61.43 80.514-0.0605 0.521-0.1208 1.042-0.3271 1.498-2.2839 13.958-0.171 24.386 2.4837 33.228 8.5727 27.891 26.581 51.561 56.275 55.576 2.824 0.3369 4.83 2.8682 6.218 6.7683 6.606 17.528 1.648 63.344 14.572 66.508 37.244 8.9998 89.829-25.229 122.34-4.9957 27.171 16.955 57.074 17.411 86.953 26.437 15.197 4.7183 25.743 59.222 41.809 60.857 40.449 3.8465 79.762-64.917 102.57-100.64 9.691-15.243 17.041-31.888 22.94-48.81 15.875-45.183 13.687-97.265-33.799-115.36-22.361-8.62-39.934-16.215-52.076-32.725-5.214-7.054-9.31-15.804-12.376-26.836-5.984-21.999-7.384-45.62-14.365-66.964z" stroke="#000"/>
<path d="m403.37-319.08c-5.13-16.145-14.457-32.686-30.667-37.488-36.496-11.041-83.836 34.819-111.09 55.614-24.131 18.528-52.72 44.209-83.127 53.387-5.666 1.691-11.272 2.861-17.108 3.381-22.128 1.707-39.105-11.466-62.704-4.569-23.599 6.897-59.151 47.204-66.551 87.193-0.0605 0.521-0.1209 1.042-0.3272 1.499-2.4048 15-0.1981 26.382 2.7651 36.09 9.3436 30.058 28.552 55.719 60.709 60.094 3.1153 0.4661 5.0535 3.1493 6.6635 7.3307 6.931 19.132 1.413 68.899 15.135 72.234 40.29 9.618 97.272-28.141 132.28-6.073 29.444 18.509 62.016 18.869 94.298 28.776 16.433 5.0826 27.886 64.551 45.179 66.181 43.847 4.073 86.272-70.797 111.03-109.31 10.602-16.483 18.425-34.562 24.866-53.069 17.164-48.811 15.091-105.41-36.539-124.79-24.181-9.242-42.998-17.57-55.963-35.357-5.591-7.769-9.988-17.017-13.361-28.915-6.602-23.732-8.112-49.046-15.495-72.211z" stroke="#000"/>
<path d="m411.65-329.65c-5.378-17.532-15.528-35.35-32.759-40.604-39.259-11.899-90.275 37.445-119.52 59.918-25.977 19.901-56.688 47.564-89.31 57.77-6.095 1.866-12.275 3.147-18.473 3.69-23.784 1.886-42.013-12.389-67.475-4.856-25.247 7.445-63.616 50.887-71.525 93.937-0.0605 0.521-0.1897 1.194-0.2501 1.714-2.7402 16.13-0.371 28.314 2.9005 38.889 9.9 32.312 30.669 59.942 64.998 64.549 3.2611 0.5307 5.4908 3.343 7.1099 7.8931 7.3245 20.584 0.9624 74.541 15.843 78.024 43.26 10.02 104.65-30.901 142.22-7.1502 31.863 20.127 66.813 20.262 101.57 30.898 17.669 5.447 29.882 69.816 48.48 71.658 47.177 4.452 92.927-76.614 119.42-118.19 11.367-17.788 19.809-37.235 26.869-57.111 18.454-52.438 16.281-113.46-39.211-134.37-25.999-9.864-46.129-18.774-59.917-37.838-5.891-8.266-10.811-18.293-14.279-31.146-7.364-25.53-8.916-52.687-16.701-77.674z" stroke="#000"/>
<path d="m419.93-340.22c-5.695-18.768-16.453-37.951-35.066-43.633-42.099-12.975-96.714 40.071-127.94 64.222-27.677 21.339-60.51 50.984-95.57 61.936-6.524 2.041-13.065 3.345-19.838 3.998-25.51 2.218-44.991-13.159-72.247-5.142-27.042 7.929-67.936 54.634-76.499 100.68-0.1292 0.673-0.18958 1.194-0.31877 1.867-2.9299 17.323-0.39813 30.31 3.1047 41.535 10.456 34.566 32.64 64.1 69.432 69.066 3.4758 0.4431 5.8597 3.6887 7.5558 8.4555 7.6496 22.188 0.727 80.096 16.406 83.75 46.375 10.486 112.02-33.662 152.02-8.2918 34.137 21.681 71.687 21.872 108.91 33.236 18.904 5.8114 31.809 75.233 51.78 77.135 50.507 4.83 99.583-82.431 127.89-126.86 12.132-19.092 21.261-40.061 28.725-61.218 19.813-56.218 17.617-121.45-42.096-143.86-27.673-10.423-49.193-20.13-63.95-40.536-6.337-8.828-11.488-19.506-15.264-33.225-7.406-27.375-8.854-56.311-17.041-83.118z" stroke="#000"/>
<path d="m428.21-350.8c-6.088-20.22-17.524-40.615-37.158-46.75-44.862-13.832-103.15 42.699-136.29 68.375-29.524 22.712-64.546 54.491-101.83 66.102-6.953 2.216-13.924 3.695-20.988 4.22-27.312 2.332-47.9-14.082-77.019-5.429-28.836 8.412-72.402 58.316-81.619 107.36-0.1292 0.673-0.2584 1.346-0.3189 1.867-3.1195 18.517-0.4252 32.305 3.2402 44.333 11.227 36.733 34.612 68.258 73.866 73.584 3.7675 0.5722 6.2972 3.8826 7.9329 9.1703 8.1205 23.857 0.277 85.738 16.968 89.475 49.421 11.104 119.46-36.574 161.96-9.3687 36.41 23.235 76.484 23.264 116.18 35.358 20.14 6.1757 33.805 80.498 55.003 82.396 53.906 5.057 106.09-88.312 136.43-135.67 13.042-20.332 22.79-42.67 30.728-65.261 21.102-59.846 18.952-129.44-44.768-153.44-29.492-11.045-52.256-21.485-67.905-43.016-6.783-9.391-12.165-20.718-16.104-35.24-8.229-28.651-9.718-59.432-18.308-88.06z" stroke="#000"/>
<path d="m541.33-73.451c22.247-63.538 20.211-137.64-47.585-163.08-44.929-16.782-74.882-32.23-88.88-82.968-8.417-30.56-9.948-63.184-19.008-93.481-6.406-21.455-18.45-43.216-39.465-49.779-47.557-14.842-109.66 45.477-144.71 72.678-37.115 28.663-82.444 70.85-130.51 74.949-28.969 2.513-50.878-14.852-81.791-5.715-30.913 9.136-78.139 63.262-86.912 115.97-3.3088 19.711-0.5211 34.454 3.3755 47.131 11.784 38.988 36.583 72.418 78.086 78.191 21.876 3.1106 4.5757 100.24 26.056 105 52.322 11.657 126.84-39.334 171.9-10.446 38.684 24.789 81.358 24.874 123.53 37.696 21.375 6.5402 35.947 85.827 58.304 87.872 57.236 5.435 112.82-94.28 144.9-144.34 13.876-21.788 24.312-45.647 32.722-69.672z" stroke="#000"/>
</svg>
